<svg width="1637" height="759" viewBox="0 0 1637 759" fill="none" xmlns="http://www.w3.org/2000/svg">
<path d="M271 37H1445C1547.72 37 1631 120.275 1631 223V536C1631 638.725 1547.72 722 1445 722H271" stroke="#EC8382" stroke-width="12" stroke-linecap="round"/>
<path d="M1337 74H263C160.275 74 77 157.275 77 260V492C77 594.725 160.275 678 263 678H1337" stroke="#EC8382" stroke-width="12" stroke-linecap="round"/>
<path d="M1366 6H192C89.275 6 6 89.275 6 192V567C6 669.725 89.275 753 192 753H1366" stroke="#0050FF" stroke-width="12" stroke-linecap="round"/>
<path d="M791 74H1378C1480.72 74 1564 157.275 1564 260V492C1564 594.725 1480.72 678 1378 678H791" stroke="#0050FF" stroke-width="12" stroke-linecap="round"/>
</svg>
