<svg width="1325" height="484" viewBox="0 0 1325 484" fill="none" xmlns="http://www.w3.org/2000/svg">
<path d="M1197.2 225.5H1227.44C1236.22 225.5 1242.26 216.685 1239.1 208.495L1166.84 21.4949C1164.98 16.6769 1160.35 13.5 1155.18 13.5H1111.12C1105.96 13.5 1101.33 16.67 1099.47 21.4804L1026.95 208.48C1023.77 216.673 1029.82 225.5 1038.6 225.5H1069.12C1074.38 225.5 1079.08 222.202 1080.87 217.252L1091.5 187.866C1092.58 184.896 1095.4 182.917 1098.56 182.917H1167.76C1170.92 182.917 1173.74 184.896 1174.81 187.866L1185.44 217.252C1187.23 222.202 1191.93 225.5 1197.2 225.5ZM1115.32 122.034L1126.01 92.4194C1128.39 85.8294 1137.7 85.8117 1140.11 92.3926L1150.93 122.007C1152.72 126.9 1149.1 132.081 1143.89 132.081H1122.37C1117.17 132.081 1113.55 126.923 1115.32 122.034ZM1310 13.5H1280.53C1273.63 13.5 1268.03 19.0964 1268.03 26V213C1268.03 219.904 1273.63 225.5 1280.53 225.5H1310C1316.9 225.5 1322.5 219.904 1322.5 213V26C1322.5 19.0964 1316.9 13.5 1310 13.5Z" fill="#EC8382" stroke="white" stroke-width="5"/>
<path d="M74.82 147.53L78.0261 149.922L80.3246 146.841L77.3375 144.422L74.82 147.53ZM57.275 133.32L59.7925 130.212L56.1975 127.3L53.8356 131.278L57.275 133.32ZM56.405 111.57L53.1589 113.907L55.6302 117.34L58.9196 114.681L56.405 111.57ZM73.805 97.505L76.3196 100.616L79.4935 98.0502L76.8646 94.9285L73.805 97.505ZM44.225 165.885C58.2466 165.885 70.3729 160.18 78.0261 149.922L71.6139 145.138C65.6371 153.15 56.0134 157.885 44.225 157.885V165.885ZM77.3375 144.422L59.7925 130.212L54.7575 136.428L72.3025 150.638L77.3375 144.422ZM53.8356 131.278C51.8425 134.635 48.8411 136.28 44.805 136.28V144.28C51.4989 144.28 57.1975 141.285 60.7144 135.362L53.8356 131.278ZM44.805 136.28C41.0204 136.28 38.2255 134.962 36.346 132.895C34.4302 130.787 33.145 127.541 33.145 123.17H25.145C25.145 129.094 26.9048 134.402 30.4265 138.276C33.9845 142.19 39.0196 144.28 44.805 144.28V136.28ZM33.145 123.17C33.145 118.819 34.4563 115.47 36.4141 113.265C38.3357 111.1 41.105 109.77 44.66 109.77V101.77C38.935 101.77 33.9468 103.993 30.4309 107.954C26.9512 111.875 25.145 117.226 25.145 123.17H33.145ZM44.66 109.77C48.4851 109.77 51.3217 111.356 53.1589 113.907L59.6511 109.233C56.2683 104.534 50.9849 101.77 44.66 101.77V109.77ZM58.9196 114.681L76.3196 100.616L71.2904 94.3942L53.8904 108.459L58.9196 114.681ZM76.8646 94.9285C69.0892 85.6951 57.6411 80.455 44.225 80.455V88.455C55.4589 88.455 64.6008 92.7849 70.7454 100.082L76.8646 94.9285ZM44.225 80.455C19.7158 80.455 1.51 98.166 1.51 123.17H9.51C9.51 102.644 24.0742 88.455 44.225 88.455V80.455ZM1.51 123.17C1.51 148.164 19.5608 165.885 44.225 165.885V157.885C23.9392 157.885 9.51 143.706 9.51 123.17H1.51ZM110.603 93.155H106.603V103.204L113.509 95.9038L110.603 93.155ZM110.603 51.25H114.603V47.25H110.603V51.25ZM87.5483 51.25V47.25H83.5483V51.25H87.5483ZM87.5483 160H83.5483V164H87.5483V160ZM110.603 160V164H114.603V160H110.603ZM137.138 160H133.138V164H137.138V160ZM160.193 160V164H164.193V160H160.193ZM132.063 80.455C122.197 80.455 113.58 84.1876 107.697 90.4062L113.509 95.9038C117.777 91.3924 124.24 88.455 132.063 88.455V80.455ZM114.603 93.155V51.25H106.603V93.155H114.603ZM110.603 47.25H87.5483V55.25H110.603V47.25ZM83.5483 51.25V160H91.5483V51.25H83.5483ZM87.5483 164H110.603V156H87.5483V164ZM114.603 160V117.515H106.603V160H114.603ZM114.603 117.515C114.603 115.131 115.686 113.331 117.522 111.996C119.456 110.591 122.188 109.77 124.958 109.77V101.77C120.768 101.77 116.323 102.979 112.819 105.525C109.218 108.142 106.603 112.214 106.603 117.515H114.603ZM124.958 109.77C127.97 109.77 129.911 110.627 131.085 111.771C132.243 112.899 133.138 114.776 133.138 117.805H141.138C141.138 113.149 139.714 109.009 136.667 106.04C133.636 103.088 129.486 101.77 124.958 101.77V109.77ZM133.138 117.805V160H141.138V117.805H133.138ZM137.138 164H160.193V156H137.138V164ZM164.193 160V112.15H156.193V160H164.193ZM164.193 112.15C164.193 102.679 160.81 94.6763 154.929 89.0503C149.071 83.4459 141.005 80.455 132.063 80.455V88.455C139.217 88.455 145.216 90.829 149.399 94.831C153.559 98.8112 156.193 104.656 156.193 112.15H164.193ZM196.67 131.145V127.145H191.424L192.813 132.204L196.67 131.145ZM246.695 131.145V135.145H249.863L250.589 132.061L246.695 131.145ZM243.505 149.995L246.306 152.85L249.367 149.847L246.159 147.002L243.505 149.995ZM228.135 136.365L230.789 133.372L228.073 130.964L225.413 133.434L228.135 136.365ZM225.815 116.21V120.21H230.303L229.788 115.752L225.815 116.21ZM196.525 116.21L192.649 115.222L191.377 120.21H196.525V116.21ZM196.67 135.145H246.695V127.145H196.67V135.145ZM250.589 132.061C251.257 129.219 251.855 122.807 251.855 119.835H243.855C243.855 122.373 243.292 128.141 242.801 130.229L250.589 132.061ZM251.855 119.835C251.855 110.084 248.685 100.232 241.919 92.7698C235.088 85.2376 224.873 80.455 211.46 80.455V88.455C222.842 88.455 230.824 92.4449 235.992 98.1439C241.224 103.913 243.855 111.751 243.855 119.835H251.855ZM211.46 80.455C198.82 80.455 188.048 84.9098 180.432 92.6072C172.825 100.296 168.6 110.982 168.6 123.025H176.6C176.6 112.883 180.133 104.284 186.119 98.234C192.096 92.1927 200.755 88.455 211.46 88.455V80.455ZM168.6 123.025C168.6 135.798 173.316 146.591 181.366 154.175C189.392 161.736 200.49 165.885 212.91 165.885V157.885C202.274 157.885 193.218 154.349 186.852 148.352C180.511 142.379 176.6 133.742 176.6 123.025H168.6ZM212.91 165.885C226.058 165.885 237.819 161.178 246.306 152.85L240.703 147.14C233.821 153.892 224.121 157.885 212.91 157.885V165.885ZM246.159 147.002L230.789 133.372L225.481 139.358L240.851 152.988L246.159 147.002ZM225.413 133.434C222.153 136.461 217.496 138.31 212.185 138.31V146.31C219.344 146.31 225.996 143.809 230.857 139.296L225.413 133.434ZM212.185 138.31C208.736 138.31 206.24 137.513 204.471 136.247C202.73 135.002 201.342 133.055 200.527 130.086L192.813 132.204C194.028 136.63 196.337 140.265 199.817 142.754C203.267 145.222 207.514 146.31 212.185 146.31V138.31ZM211.17 108.32C214.616 108.32 217.106 109.223 218.756 110.552C220.363 111.847 221.512 113.814 221.841 116.668L229.788 115.752C229.248 111.066 227.207 107.088 223.775 104.323C220.387 101.592 215.989 100.32 211.17 100.32V108.32ZM225.815 112.21H196.525V120.21H225.815V112.21ZM200.401 117.198C201.18 114.141 202.541 111.971 204.229 110.568C205.89 109.188 208.143 108.32 211.17 108.32V100.32C206.511 100.32 202.385 101.699 199.116 104.415C195.874 107.109 193.755 110.884 192.649 115.222L200.401 117.198ZM283.047 131.145V127.145H277.801L279.189 132.204L283.047 131.145ZM333.072 131.145V135.145H336.24L336.965 132.061L333.072 131.145ZM329.882 149.995L332.683 152.85L335.744 149.847L332.536 147.002L329.882 149.995ZM314.512 136.365L317.166 133.372L314.45 130.964L311.79 133.434L314.512 136.365ZM312.192 116.21V120.21H316.68L316.165 115.752L312.192 116.21ZM282.902 116.21L279.026 115.222L277.754 120.21H282.902V116.21ZM283.047 135.145H333.072V127.145H283.047V135.145ZM336.965 132.061C337.634 129.219 338.232 122.807 338.232 119.835H330.232C330.232 122.373 329.669 128.141 329.178 130.229L336.965 132.061ZM338.232 119.835C338.232 110.084 335.062 100.232 328.296 92.7698C321.465 85.2376 311.25 80.455 297.837 80.455V88.455C309.219 88.455 317.201 92.4449 322.369 98.1439C327.601 103.913 330.232 111.751 330.232 119.835H338.232ZM297.837 80.455C285.197 80.455 274.425 84.9098 266.809 92.6072C259.202 100.296 254.977 110.982 254.977 123.025H262.977C262.977 112.883 266.51 104.284 272.496 98.234C278.473 92.1927 287.132 88.455 297.837 88.455V80.455ZM254.977 123.025C254.977 135.798 259.693 146.591 267.743 154.175C275.769 161.736 286.867 165.885 299.287 165.885V157.885C288.651 157.885 279.595 154.349 273.229 148.352C266.888 142.379 262.977 133.742 262.977 123.025H254.977ZM299.287 165.885C312.435 165.885 324.196 161.178 332.683 152.85L327.08 147.14C320.198 153.892 310.498 157.885 299.287 157.885V165.885ZM332.536 147.002L317.166 133.372L311.858 139.358L327.228 152.988L332.536 147.002ZM311.79 133.434C308.53 136.461 303.873 138.31 298.562 138.31V146.31C305.721 146.31 312.373 143.809 317.234 139.296L311.79 133.434ZM298.562 138.31C295.113 138.31 292.617 137.513 290.848 136.247C289.107 135.002 287.719 133.055 286.904 130.086L279.189 132.204C280.404 136.63 282.714 140.265 286.193 142.754C289.644 145.222 293.891 146.31 298.562 146.31V138.31ZM297.547 108.32C300.993 108.32 303.483 109.223 305.133 110.552C306.739 111.847 307.889 113.814 308.218 116.668L316.165 115.752C315.625 111.066 313.584 107.088 310.152 104.323C306.763 101.592 302.366 100.32 297.547 100.32V108.32ZM312.192 112.21H282.902V120.21H312.192V112.21ZM286.778 117.198C287.557 114.141 288.918 111.971 290.606 110.568C292.267 109.188 294.52 108.32 297.547 108.32V100.32C292.888 100.32 288.762 101.699 285.493 104.415C282.251 107.109 280.132 110.884 279.026 115.222L286.778 117.198ZM414.664 147.53L417.87 149.922L420.168 146.841L417.181 144.422L414.664 147.53ZM397.119 133.32L399.636 130.212L396.041 127.3L393.679 131.278L397.119 133.32ZM396.249 111.57L393.003 113.907L395.474 117.34L398.763 114.681L396.249 111.57ZM413.649 97.505L416.163 100.616L419.337 98.0502L416.708 94.9285L413.649 97.505ZM384.069 165.885C398.09 165.885 410.217 160.18 417.87 149.922L411.458 145.138C405.481 153.15 395.857 157.885 384.069 157.885V165.885ZM417.181 144.422L399.636 130.212L394.601 136.428L412.146 150.638L417.181 144.422ZM393.679 131.278C391.686 134.635 388.685 136.28 384.649 136.28V144.28C391.343 144.28 397.041 141.285 400.558 135.362L393.679 131.278ZM384.649 136.28C380.864 136.28 378.069 134.962 376.19 132.895C374.274 130.787 372.989 127.541 372.989 123.17H364.989C364.989 129.094 366.749 134.402 370.27 138.276C373.828 142.19 378.863 144.28 384.649 144.28V136.28ZM372.989 123.17C372.989 118.819 374.3 115.47 376.258 113.265C378.179 111.1 380.949 109.77 384.504 109.77V101.77C378.779 101.77 373.791 103.993 370.275 107.954C366.795 111.875 364.989 117.226 364.989 123.17H372.989ZM384.504 109.77C388.329 109.77 391.165 111.356 393.003 113.907L399.495 109.233C396.112 104.534 390.829 101.77 384.504 101.77V109.77ZM398.763 114.681L416.163 100.616L411.134 94.3942L393.734 108.459L398.763 114.681ZM416.708 94.9285C408.933 85.6951 397.485 80.455 384.069 80.455V88.455C395.303 88.455 404.445 92.7849 410.589 100.082L416.708 94.9285ZM384.069 80.455C359.56 80.455 341.354 98.166 341.354 123.17H349.354C349.354 102.644 363.918 88.455 384.069 88.455V80.455ZM341.354 123.17C341.354 148.164 359.405 165.885 384.069 165.885V157.885C363.783 157.885 349.354 143.706 349.354 123.17H341.354ZM476.837 160L473.517 162.231L474.706 164H476.837V160ZM503.227 160V164H511.104L506.457 157.64L503.227 160ZM472.922 118.53L470.006 115.792L467.734 118.211L469.692 120.89L472.922 118.53ZM502.067 87.5L504.983 90.2385L511.312 83.5H502.067V87.5ZM473.937 87.5V83.5H472.129L470.935 84.8568L473.937 87.5ZM450.447 114.18H446.447V124.776L453.449 116.823L450.447 114.18ZM450.447 51.25H454.447V47.25H450.447V51.25ZM427.392 51.25V47.25H423.392V51.25H427.392ZM427.392 160H423.392V164H427.392V160ZM450.447 160V164H454.447V160H450.447ZM450.447 142.6L447.527 139.866L446.447 141.019V142.6H450.447ZM459.002 133.465L462.322 131.234L459.518 127.062L456.082 130.731L459.002 133.465ZM476.837 164H503.227V156H476.837V164ZM506.457 157.64L476.152 116.17L469.692 120.89L499.997 162.36L506.457 157.64ZM475.838 121.268L504.983 90.2385L499.151 84.7615L470.006 115.792L475.838 121.268ZM502.067 83.5H473.937V91.5H502.067V83.5ZM470.935 84.8568L447.445 111.537L453.449 116.823L476.939 90.1432L470.935 84.8568ZM454.447 114.18V51.25H446.447V114.18H454.447ZM450.447 47.25H427.392V55.25H450.447V47.25ZM423.392 51.25V160H431.392V51.25H423.392ZM427.392 164H450.447V156H427.392V164ZM454.447 160V142.6H446.447V160H454.447ZM453.367 145.334L461.922 136.199L456.082 130.731L447.527 139.866L453.367 145.334ZM455.682 135.696L473.517 162.231L480.157 157.769L462.322 131.234L455.682 135.696ZM557.876 97.36L558.668 93.4391L558.656 93.4367L558.644 93.4344L557.876 97.36ZM583.686 87.21L581.556 90.5958L585.086 92.8161L587.158 89.1973L583.686 87.21ZM595.141 67.2L598.613 69.1873L600.545 65.812L597.225 63.7858L595.141 67.2ZM554.396 121.14L553.479 125.033L553.495 125.037L553.512 125.041L554.396 121.14ZM521.771 128.39L524.223 125.23L520.589 122.41L518.301 126.4L521.771 128.39ZM510.461 148.11L506.991 146.12L505.238 149.178L508.051 151.302L510.461 148.11ZM555.411 165.885C568.342 165.885 579.816 162.696 588.162 156.396C596.623 150.009 601.606 140.603 601.606 128.97H593.606C593.606 138.072 589.817 145.123 583.343 150.011C576.754 154.984 567.13 157.885 555.411 157.885V165.885ZM601.606 128.97C601.606 115.433 594.33 107.125 585.377 102.023C576.679 97.0668 566.102 94.9403 558.668 93.4391L557.084 101.281C564.73 102.825 574.018 104.758 581.416 108.974C588.557 113.043 593.606 119.017 593.606 128.97H601.606ZM558.644 93.4344C551.9 92.1149 547.974 91.0725 545.745 89.9579C544.698 89.4343 544.337 89.0408 544.218 88.8716C544.146 88.7709 544.041 88.6005 544.041 88.08H536.041C536.041 89.952 536.498 91.8116 537.686 93.4916C538.826 95.1033 540.423 96.2413 542.167 97.1133C545.521 98.79 550.512 99.9951 557.108 101.286L558.644 93.4344ZM544.041 88.08C544.041 86.6789 544.553 85.6182 545.924 84.7242C547.511 83.6892 550.431 82.8 555.266 82.8V74.8C549.661 74.8 544.969 75.7958 541.554 78.0233C537.922 80.3918 536.041 83.9711 536.041 88.08H544.041ZM555.266 82.8C563.368 82.8 573.213 85.3479 581.556 90.5958L585.816 83.8242C576.179 77.7621 564.854 74.8 555.266 74.8V82.8ZM587.158 89.1973L598.613 69.1873L591.67 65.2127L580.215 85.2227L587.158 89.1973ZM597.225 63.7858C585.448 56.5968 572.259 52.615 557.151 52.615V60.615C570.754 60.615 582.505 64.1732 593.057 70.6142L597.225 63.7858ZM557.151 52.615C547.018 52.615 535.264 54.3597 525.91 60.0486C516.274 65.9084 509.506 75.783 509.506 90.98H517.506C517.506 78.627 522.773 71.3191 530.066 66.8839C537.641 62.2778 547.71 60.615 557.151 60.615V52.615ZM509.506 90.98C509.506 95.9219 510.229 100.28 512.037 104.109C513.867 107.985 516.677 111.04 520.399 113.559C527.568 118.413 538.549 121.516 553.479 125.033L555.313 117.247C540.083 113.659 530.619 110.817 524.884 106.935C522.153 105.086 520.395 103.074 519.271 100.693C518.124 98.2644 517.506 95.1731 517.506 90.98H509.506ZM553.512 125.041C559.214 126.333 562.722 127.098 564.945 128.158C565.951 128.638 566.33 129.023 566.486 129.242C566.602 129.407 566.781 129.733 566.781 130.565H574.781C574.781 128.424 574.271 126.394 573.015 124.62C571.798 122.9 570.119 121.762 568.388 120.937C565.138 119.387 560.454 118.412 555.28 117.239L553.512 125.041ZM566.781 130.565C566.781 132.128 566.169 133.205 564.743 134.087C563.103 135.102 560.317 135.845 556.281 135.845V143.845C561.091 143.845 565.554 142.993 568.953 140.89C572.566 138.655 574.781 135.092 574.781 130.565H566.781ZM556.281 135.845C551.378 135.845 545.284 134.719 539.353 132.765C533.413 130.808 527.956 128.126 524.223 125.23L519.319 131.55C523.996 135.179 530.357 138.224 536.85 140.364C543.353 142.506 550.31 143.845 556.281 143.845V135.845ZM518.301 126.4L506.991 146.12L513.931 150.1L525.241 130.38L518.301 126.4ZM508.051 151.302C515.789 157.145 535.037 165.885 555.411 165.885V157.885C536.925 157.885 519.344 149.805 512.872 144.918L508.051 151.302ZM633.939 95.475L629.957 95.8542L630.984 106.644L637.213 97.7735L633.939 95.475ZM633.069 86.34L637.051 85.9608L636.706 82.34H633.069V86.34ZM611.899 86.34V82.34H607.899V86.34H611.899ZM611.899 196.25H607.899V200.25H611.899V196.25ZM634.954 196.25V200.25H638.954V196.25H634.954ZM634.954 153.33L637.939 150.668L630.954 142.836V153.33H634.954ZM655.834 80.455C645.13 80.455 636.213 85.2754 630.665 93.1765L637.213 97.7735C641.235 92.0446 647.688 88.455 655.834 88.455V80.455ZM637.921 95.0958L637.051 85.9608L629.087 86.7192L629.957 95.8542L637.921 95.0958ZM633.069 82.34H611.899V90.34H633.069V82.34ZM607.899 86.34V196.25H615.899V86.34H607.899ZM611.899 200.25H634.954V192.25H611.899V200.25ZM638.954 196.25V153.33H630.954V196.25H638.954ZM631.969 155.992C637.575 162.278 645.801 165.885 655.254 165.885V157.885C647.887 157.885 641.903 155.112 637.939 150.668L631.969 155.992ZM655.254 165.885C676.961 165.885 693.619 147.623 693.619 123.315H685.619C685.619 143.956 671.827 157.885 655.254 157.885V165.885ZM693.619 123.315C693.619 99.0946 677.04 80.455 655.834 80.455V88.455C671.748 88.455 685.619 102.585 685.619 123.315H693.619ZM649.889 136.57C642.753 136.57 637.504 131.343 637.504 123.17H629.504C629.504 135.297 637.885 144.57 649.889 144.57V136.57ZM637.504 123.17C637.504 118.942 638.919 115.66 641.042 113.458C643.159 111.261 646.194 109.915 649.889 109.915V101.915C644.159 101.915 639.001 104.049 635.282 107.906C631.569 111.758 629.504 117.103 629.504 123.17H637.504ZM649.889 109.915C656.912 109.915 661.984 115.166 661.984 123.315H669.984C669.984 111.454 662.006 101.915 649.889 101.915V109.915ZM661.984 123.315C661.984 131.296 656.933 136.57 649.889 136.57V144.57C661.985 144.57 669.984 135.054 669.984 123.315H661.984ZM724.844 131.145V127.145H719.598L720.986 132.204L724.844 131.145ZM774.869 131.145V135.145H778.037L778.762 132.061L774.869 131.145ZM771.679 149.995L774.48 152.85L777.541 149.847L774.333 147.002L771.679 149.995ZM756.309 136.365L758.963 133.372L756.247 130.964L753.587 133.434L756.309 136.365ZM753.989 116.21V120.21H758.477L757.962 115.752L753.989 116.21ZM724.699 116.21L720.823 115.222L719.551 120.21H724.699V116.21ZM724.844 135.145H774.869V127.145H724.844V135.145ZM778.762 132.061C779.431 129.219 780.029 122.807 780.029 119.835H772.029C772.029 122.373 771.466 128.141 770.975 130.229L778.762 132.061ZM780.029 119.835C780.029 110.084 776.859 100.232 770.092 92.7698C763.262 85.2376 753.046 80.455 739.634 80.455V88.455C751.016 88.455 758.998 92.4449 764.166 98.1439C769.398 103.913 772.029 111.751 772.029 119.835H780.029ZM739.634 80.455C726.994 80.455 716.222 84.9098 708.606 92.6072C700.998 100.296 696.774 110.982 696.774 123.025H704.774C704.774 112.883 708.306 104.284 714.293 98.234C720.27 92.1927 728.929 88.455 739.634 88.455V80.455ZM696.774 123.025C696.774 135.798 701.49 146.591 709.54 154.175C717.566 161.736 728.664 165.885 741.084 165.885V157.885C730.448 157.885 721.392 154.349 715.026 148.352C708.685 142.379 704.774 133.742 704.774 123.025H696.774ZM741.084 165.885C754.232 165.885 765.993 161.178 774.48 152.85L768.877 147.14C761.995 153.892 752.295 157.885 741.084 157.885V165.885ZM774.333 147.002L758.963 133.372L753.655 139.358L769.025 152.988L774.333 147.002ZM753.587 133.434C750.327 136.461 745.67 138.31 740.359 138.31V146.31C747.518 146.31 754.17 143.809 759.03 139.296L753.587 133.434ZM740.359 138.31C736.91 138.31 734.414 137.513 732.645 136.247C730.904 135.002 729.516 133.055 728.701 130.086L720.986 132.204C722.201 136.63 724.511 140.265 727.99 142.754C731.441 145.222 735.688 146.31 740.359 146.31V138.31ZM739.344 108.32C742.789 108.32 745.279 109.223 746.93 110.552C748.536 111.847 749.686 113.814 750.015 116.668L757.962 115.752C757.422 111.066 755.381 107.088 751.949 104.323C748.56 101.592 744.163 100.32 739.344 100.32V108.32ZM753.989 112.21H724.699V120.21H753.989V112.21ZM728.575 117.198C729.354 114.141 730.715 111.971 732.402 110.568C734.064 109.188 736.317 108.32 739.344 108.32V100.32C734.685 100.32 730.559 101.699 727.29 104.415C724.048 107.109 721.928 110.884 720.823 115.222L728.575 117.198ZM811.221 131.145V127.145H805.975L807.363 132.204L811.221 131.145ZM861.246 131.145V135.145H864.414L865.139 132.061L861.246 131.145ZM858.056 149.995L860.857 152.85L863.918 149.847L860.71 147.002L858.056 149.995ZM842.686 136.365L845.34 133.372L842.624 130.964L839.964 133.434L842.686 136.365ZM840.366 116.21V120.21H844.854L844.339 115.752L840.366 116.21ZM811.076 116.21L807.2 115.222L805.928 120.21H811.076V116.21ZM811.221 135.145H861.246V127.145H811.221V135.145ZM865.139 132.061C865.808 129.219 866.406 122.807 866.406 119.835H858.406C858.406 122.373 857.843 128.141 857.352 130.229L865.139 132.061ZM866.406 119.835C866.406 110.084 863.236 100.232 856.469 92.7698C849.639 85.2376 839.423 80.455 826.011 80.455V88.455C837.393 88.455 845.375 92.4449 850.543 98.1439C855.775 103.913 858.406 111.751 858.406 119.835H866.406ZM826.011 80.455C813.371 80.455 802.599 84.9098 794.983 92.6072C787.375 100.296 783.151 110.982 783.151 123.025H791.151C791.151 112.883 794.683 104.284 800.67 98.234C806.647 92.1927 815.306 88.455 826.011 88.455V80.455ZM783.151 123.025C783.151 135.798 787.867 146.591 795.917 154.175C803.943 161.736 815.041 165.885 827.461 165.885V157.885C816.825 157.885 807.768 154.349 801.403 148.352C795.062 142.379 791.151 133.742 791.151 123.025H783.151ZM827.461 165.885C840.609 165.885 852.37 161.178 860.857 152.85L855.254 147.14C848.372 153.892 838.672 157.885 827.461 157.885V165.885ZM860.71 147.002L845.34 133.372L840.032 139.358L855.402 152.988L860.71 147.002ZM839.964 133.434C836.704 136.461 832.047 138.31 826.736 138.31V146.31C833.895 146.31 840.547 143.809 845.407 139.296L839.964 133.434ZM826.736 138.31C823.287 138.31 820.791 137.513 819.021 136.247C817.281 135.002 815.893 133.055 815.078 130.086L807.363 132.204C808.578 136.63 810.888 140.265 814.367 142.754C817.818 145.222 822.065 146.31 826.736 146.31V138.31ZM825.721 108.32C829.166 108.32 831.656 109.223 833.307 110.552C834.913 111.847 836.063 113.814 836.392 116.668L844.339 115.752C843.799 111.066 841.758 107.088 838.326 104.323C834.937 101.592 830.54 100.32 825.721 100.32V108.32ZM840.366 112.21H811.076V120.21H840.366V112.21ZM814.952 117.198C815.731 114.141 817.092 111.971 818.779 110.568C820.441 109.188 822.694 108.32 825.721 108.32V100.32C821.062 100.32 816.936 101.699 813.667 104.415C810.425 107.109 808.305 110.884 807.2 115.222L814.952 117.198ZM942.838 147.53L946.044 149.922L948.342 146.841L945.355 144.422L942.838 147.53ZM925.293 133.32L927.81 130.212L924.215 127.3L921.853 131.278L925.293 133.32ZM924.423 111.57L921.176 113.907L923.648 117.34L926.937 114.681L924.423 111.57ZM941.823 97.505L944.337 100.616L947.511 98.0502L944.882 94.9285L941.823 97.505ZM912.243 165.885C926.264 165.885 938.39 160.18 946.044 149.922L939.631 145.138C933.655 153.15 924.031 157.885 912.243 157.885V165.885ZM945.355 144.422L927.81 130.212L922.775 136.428L940.32 150.638L945.355 144.422ZM921.853 131.278C919.86 134.635 916.859 136.28 912.823 136.28V144.28C919.516 144.28 925.215 141.285 928.732 135.362L921.853 131.278ZM912.823 136.28C909.038 136.28 906.243 134.962 904.364 132.895C902.448 130.787 901.163 127.541 901.163 123.17H893.163C893.163 129.094 894.922 134.402 898.444 138.276C902.002 142.19 907.037 144.28 912.823 144.28V136.28ZM901.163 123.17C901.163 118.819 902.474 115.47 904.432 113.265C906.353 111.1 909.123 109.77 912.678 109.77V101.77C906.953 101.77 901.964 103.993 898.448 107.954C894.969 111.875 893.163 117.226 893.163 123.17H901.163ZM912.678 109.77C916.503 109.77 919.339 111.356 921.176 113.907L927.669 109.233C924.286 104.534 919.002 101.77 912.678 101.77V109.77ZM926.937 114.681L944.337 100.616L939.308 94.3942L921.908 108.459L926.937 114.681ZM944.882 94.9285C937.107 85.6951 925.659 80.455 912.243 80.455V88.455C923.477 88.455 932.618 92.7849 938.763 100.082L944.882 94.9285ZM912.243 80.455C887.733 80.455 869.528 98.166 869.528 123.17H877.528C877.528 102.644 892.092 88.455 912.243 88.455V80.455ZM869.528 123.17C869.528 148.164 887.578 165.885 912.243 165.885V157.885C891.957 157.885 877.528 143.706 877.528 123.17H869.528ZM978.621 93.155H974.621V103.204L981.527 95.9038L978.621 93.155ZM978.621 51.25H982.621V47.25H978.621V51.25ZM955.566 51.25V47.25H951.566V51.25H955.566ZM955.566 160H951.566V164H955.566V160ZM978.621 160V164H982.621V160H978.621ZM1005.16 160H1001.16V164H1005.16V160ZM1028.21 160V164H1032.21V160H1028.21ZM1000.08 80.455C990.214 80.455 981.597 84.1876 975.715 90.4062L981.527 95.9038C985.794 91.3924 992.257 88.455 1000.08 88.455V80.455ZM982.621 93.155V51.25H974.621V93.155H982.621ZM978.621 47.25H955.566V55.25H978.621V47.25ZM951.566 51.25V160H959.566V51.25H951.566ZM955.566 164H978.621V156H955.566V164ZM982.621 160V117.515H974.621V160H982.621ZM982.621 117.515C982.621 115.131 983.703 113.331 985.54 111.996C987.473 110.591 990.206 109.77 992.976 109.77V101.77C988.786 101.77 984.341 102.979 980.837 105.525C977.236 108.142 974.621 112.214 974.621 117.515H982.621ZM992.976 109.77C995.988 109.77 997.928 110.627 999.102 111.771C1000.26 112.899 1001.16 114.776 1001.16 117.805H1009.16C1009.16 113.149 1007.73 109.009 1004.68 106.04C1001.65 103.088 997.504 101.77 992.976 101.77V109.77ZM1001.16 117.805V160H1009.16V117.805H1001.16ZM1005.16 164H1028.21V156H1005.16V164ZM1032.21 160V112.15H1024.21V160H1032.21ZM1032.21 112.15C1032.21 102.679 1028.83 94.6763 1022.95 89.0503C1017.09 83.4459 1009.02 80.455 1000.08 80.455V88.455C1007.23 88.455 1013.23 90.829 1017.42 94.831C1021.58 98.8112 1024.21 104.656 1024.21 112.15H1032.21Z" fill="white"/>
<path d="M400 381C400 436.228 355.228 481 300 481C244.772 481 200 436.228 200 381C200 325.772 244.772 281 300 281C355.228 281 400 325.772 400 381Z" fill="url(#paint0_linear_86_18)"/>
<path d="M300 324.969L385.603 381.194L300 437.42L214.397 381.194L300 324.969Z" fill="#FFDF00"/>
<circle cx="300" cy="381" r="28.4047" fill="#002776"/>
<g filter="url(#filter0_d_86_18)">
<rect x="521" y="306" width="274" height="149.604" fill="#B31942"/>
</g>
<rect x="521" y="306" width="148.108" height="76.7705" fill="#0A3161"/>
<rect x="668.285" y="330.934" width="125.069" height="7.8739" fill="white"/>
<rect x="668.285" y="348.65" width="125.069" height="7.8739" fill="white"/>
<rect x="668.285" y="366.366" width="125.069" height="7.8739" fill="white"/>
<rect x="521" y="384.083" width="270.709" height="7.8739" fill="white"/>
<rect x="521" y="401.799" width="270.709" height="7.8739" fill="white"/>
<rect x="521" y="419.515" width="270.709" height="7.8739" fill="white"/>
<rect x="521" y="437.232" width="270.709" height="7.8739" fill="white"/>
<rect x="668.285" y="313.218" width="125.069" height="7.8739" fill="white"/>
<path d="M532.108 310.593L534.048 315.354L540.325 315.354L535.247 318.296L537.186 323.057L532.108 320.114L527.03 323.057L528.97 318.296L523.891 315.354L530.168 315.354L532.108 310.593Z" fill="white"/>
<path d="M532.108 325.685L534.048 330.445L540.325 330.445L535.247 333.388L537.186 338.148L532.108 335.206L527.03 338.148L528.97 333.388L523.891 330.445L530.168 330.445L532.108 325.685Z" fill="white"/>
<path d="M533.754 343.401L535.693 348.162L541.971 348.162L536.892 351.104L538.832 355.865L533.754 352.922L528.676 355.865L530.615 351.104L525.537 348.162L531.814 348.162L533.754 343.401Z" fill="white"/>
<path d="M532.108 363.742L534.048 368.502L540.325 368.502L535.247 371.445L537.186 376.205L532.108 373.263L527.03 376.205L528.97 371.445L523.891 368.502L530.168 368.502L532.108 363.742Z" fill="white"/>
<path d="M555.97 310.593L557.91 315.354L564.187 315.354L559.108 318.296L561.048 323.057L555.97 320.114L550.892 323.057L552.831 318.296L547.753 315.354L554.03 315.354L555.97 310.593Z" fill="white"/>
<path d="M555.97 325.685L557.91 330.445L564.187 330.445L559.108 333.388L561.048 338.148L555.97 335.206L550.892 338.148L552.831 333.388L547.753 330.445L554.03 330.445L555.97 325.685Z" fill="white"/>
<path d="M557.616 343.401L559.555 348.162L565.832 348.162L560.754 351.104L562.694 355.865L557.616 352.922L552.537 355.865L554.477 351.104L549.399 348.162L555.676 348.162L557.616 343.401Z" fill="white"/>
<path d="M555.97 363.742L557.91 368.502L564.187 368.502L559.108 371.445L561.048 376.205L555.97 373.263L550.892 376.205L552.831 371.445L547.753 368.502L554.03 368.502L555.97 363.742Z" fill="white"/>
<path d="M579.832 310.593L581.771 315.354L588.049 315.354L582.97 318.296L584.91 323.057L579.832 320.114L574.754 323.057L576.693 318.296L571.615 315.354L577.892 315.354L579.832 310.593Z" fill="white"/>
<path d="M579.832 325.685L581.771 330.445L588.049 330.445L582.97 333.388L584.91 338.148L579.832 335.206L574.754 338.148L576.693 333.388L571.615 330.445L577.892 330.445L579.832 325.685Z" fill="white"/>
<path d="M581.478 343.401L583.417 348.162L589.694 348.162L584.616 351.104L586.556 355.865L581.478 352.922L576.399 355.865L578.339 351.104L573.261 348.162L579.538 348.162L581.478 343.401Z" fill="white"/>
<path d="M579.832 363.742L581.771 368.502L588.049 368.502L582.97 371.445L584.91 376.205L579.832 373.263L574.754 376.205L576.693 371.445L571.615 368.502L577.892 368.502L579.832 363.742Z" fill="white"/>
<path d="M603.694 310.593L605.633 315.354L611.911 315.354L606.832 318.296L608.772 323.057L603.694 320.114L598.615 323.057L600.555 318.296L595.477 315.354L601.754 315.354L603.694 310.593Z" fill="white"/>
<path d="M603.694 325.685L605.633 330.445L611.911 330.445L606.832 333.388L608.772 338.148L603.694 335.206L598.615 338.148L600.555 333.388L595.477 330.445L601.754 330.445L603.694 325.685Z" fill="white"/>
<path d="M605.339 343.401L607.279 348.162L613.556 348.162L608.478 351.104L610.418 355.865L605.339 352.922L600.261 355.865L602.201 351.104L597.123 348.162L603.4 348.162L605.339 343.401Z" fill="white"/>
<path d="M603.694 363.742L605.633 368.502L611.911 368.502L606.832 371.445L608.772 376.205L603.694 373.263L598.615 376.205L600.555 371.445L595.477 368.502L601.754 368.502L603.694 363.742Z" fill="white"/>
<path d="M627.556 310.593L629.495 315.354L635.772 315.354L630.694 318.296L632.634 323.057L627.556 320.114L622.477 323.057L624.417 318.296L619.339 315.354L625.616 315.354L627.556 310.593Z" fill="white"/>
<path d="M627.556 325.685L629.495 330.445L635.772 330.445L630.694 333.388L632.634 338.148L627.556 335.206L622.477 338.148L624.417 333.388L619.339 330.445L625.616 330.445L627.556 325.685Z" fill="white"/>
<path d="M629.201 343.401L631.141 348.162L637.418 348.162L632.34 351.104L634.279 355.865L629.201 352.922L624.123 355.865L626.063 351.104L620.984 348.162L627.261 348.162L629.201 343.401Z" fill="white"/>
<path d="M627.556 363.742L629.495 368.502L635.772 368.502L630.694 371.445L632.634 376.205L627.556 373.263L622.477 376.205L624.417 371.445L619.339 368.502L625.616 368.502L627.556 363.742Z" fill="white"/>
<path d="M651.417 310.593L653.357 315.354L659.634 315.354L654.556 318.296L656.496 323.057L651.417 320.114L646.339 323.057L648.279 318.296L643.201 315.354L649.478 315.354L651.417 310.593Z" fill="white"/>
<path d="M651.417 325.685L653.357 330.445L659.634 330.445L654.556 333.388L656.496 338.148L651.417 335.206L646.339 338.148L648.279 333.388L643.201 330.445L649.478 330.445L651.417 325.685Z" fill="white"/>
<path d="M653.063 343.401L655.003 348.162L661.28 348.162L656.202 351.104L658.141 355.865L653.063 352.922L647.985 355.865L649.925 351.104L644.846 348.162L651.123 348.162L653.063 343.401Z" fill="white"/>
<path d="M651.417 363.742L653.357 368.502L659.634 368.502L654.556 371.445L656.496 376.205L651.417 373.263L646.339 376.205L648.279 371.445L643.201 368.502L649.478 368.502L651.417 363.742Z" fill="white"/>
<g filter="url(#filter1_d_86_18)">
<path d="M1024.13 306.112L1051.96 260L1078.7 306.112V459.727H1024.13V306.112Z" fill="white"/>
<path d="M1163.56 460L1078.15 305.566V460H1163.56Z" fill="#EF4135"/>
<path d="M939 459.729L1024.4 305.293L1024.4 459.727L939 459.729Z" fill="#0055A4"/>
</g>
<defs>
<filter id="filter0_d_86_18" x="517" y="298" width="306" height="181.604" filterUnits="userSpaceOnUse" color-interpolation-filters="sRGB">
<feFlood flood-opacity="0" result="BackgroundImageFix"/>
<feColorMatrix in="SourceAlpha" type="matrix" values="0 0 0 0 0 0 0 0 0 0 0 0 0 0 0 0 0 0 127 0" result="hardAlpha"/>
<feOffset dx="12" dy="8"/>
<feGaussianBlur stdDeviation="8"/>
<feComposite in2="hardAlpha" operator="out"/>
<feColorMatrix type="matrix" values="0 0 0 0 0.701961 0 0 0 0 0.0980392 0 0 0 0 0.258824 0 0 0 1 0"/>
<feBlend mode="normal" in2="BackgroundImageFix" result="effect1_dropShadow_86_18"/>
<feBlend mode="normal" in="SourceGraphic" in2="effect1_dropShadow_86_18" result="shape"/>
</filter>
<filter id="filter1_d_86_18" x="931" y="260" width="240.557" height="224" filterUnits="userSpaceOnUse" color-interpolation-filters="sRGB">
<feFlood flood-opacity="0" result="BackgroundImageFix"/>
<feColorMatrix in="SourceAlpha" type="matrix" values="0 0 0 0 0 0 0 0 0 0 0 0 0 0 0 0 0 0 127 0" result="hardAlpha"/>
<feOffset dy="16"/>
<feGaussianBlur stdDeviation="4"/>
<feComposite in2="hardAlpha" operator="out"/>
<feColorMatrix type="matrix" values="0 0 0 0 0 0 0 0 0 0.333333 0 0 0 0 0.643137 0 0 0 0.5 0"/>
<feBlend mode="normal" in2="BackgroundImageFix" result="effect1_dropShadow_86_18"/>
<feBlend mode="normal" in="SourceGraphic" in2="effect1_dropShadow_86_18" result="shape"/>
</filter>
<linearGradient id="paint0_linear_86_18" x1="300" y1="281" x2="300" y2="481" gradientUnits="userSpaceOnUse">
<stop stop-color="#009C3B"/>
<stop offset="1" stop-color="#06D253"/>
</linearGradient>
</defs>
</svg>
