<svg width="361" height="100" viewBox="0 0 361 100" fill="none" xmlns="http://www.w3.org/2000/svg">
<path d="M75.5169 15.4905C75.5169 24.0457 68.5207 30.981 59.8906 30.981C51.2604 30.981 44.2643 24.0457 44.2643 15.4905C44.2643 6.93534 51.2604 0 59.8906 0C68.5207 0 75.5169 6.93534 75.5169 15.4905Z" fill="#34BC85"/>
<path d="M51.4675 83.6736C23.0428 83.6736 0 60.8311 0 32.6533V8.16356C28.4247 8.16356 51.4688 31.0061 51.4688 59.1839L51.4675 83.6736Z" fill="#34BC85"/>
<path d="M108.083 24.4899C79.6579 24.4899 56.6151 47.3325 56.6151 75.5102V100C85.0398 100 108.083 77.1574 108.083 48.9797V24.4899Z" fill="#34BC85"/>
<path d="M203.031 14.8365V76.7575H190.585V36.4822L173.961 76.7575H164.537L147.824 36.4822V76.7575H135.379V14.8365H149.513L169.249 60.878L188.985 14.8365H203.031Z" fill="black"/>
<path d="M218.091 21.756C215.898 21.756 214.061 21.0759 212.58 19.7156C211.157 18.2962 210.446 16.5515 210.446 14.4816C210.446 12.4117 211.157 10.6966 212.58 9.3363C214.061 7.91691 215.898 7.20721 218.091 7.20721C220.284 7.20721 222.092 7.91691 223.514 9.3363C224.996 10.6966 225.737 12.4117 225.737 14.4816C225.737 16.5515 224.996 18.2962 223.514 19.7156C222.092 21.0759 220.284 21.756 218.091 21.756ZM224.225 27.611V76.7575H211.78V27.611H224.225Z" fill="black"/>
<path d="M260.258 26.9013C266.125 26.9013 270.866 28.7642 274.482 32.4901C278.097 36.1569 279.905 41.3022 279.905 47.926V76.7575H267.459V49.6116C267.459 45.7082 266.481 42.7216 264.525 40.6517C262.569 38.5226 259.902 37.458 256.524 37.458C253.087 37.458 250.36 38.5226 248.345 40.6517C246.39 42.7216 245.412 45.7082 245.412 49.6116V76.7575H232.966V27.611H245.412V33.7321C247.071 31.603 249.175 29.9471 251.724 28.7642C254.331 27.5223 257.176 26.9013 260.258 26.9013Z" fill="black"/>
<path d="M302.674 37.8129V61.5877C302.674 63.2437 303.06 64.4561 303.83 65.2249C304.66 65.9346 306.023 66.2894 307.92 66.2894H313.698V76.7575H305.875C295.385 76.7575 290.14 71.6713 290.14 61.499V37.8129H280.904V27.611H290.14V15.4574H302.674V27.611V37.8129Z" fill="black"/>
<path d="M360.36 27.611L329.868 100H316.622L327.29 75.5155L307.554 27.611H321.511L334.224 61.9425L347.114 27.611H360.36Z" fill="black"/>
</svg>
