<svg width="352" height="100" viewBox="0 0 352 100" fill="none" xmlns="http://www.w3.org/2000/svg">
<path d="M114.912 19.1205V7.01752H175.805V19.1205H152.3V90.7605H138.66V19.1205H114.912Z" fill="black"/>
<path d="M213.104 79.7577L216.514 79.391L216.757 89.2934C207.502 91.168 199.301 92.1052 192.157 92.1052C183.144 92.1052 176.649 89.6194 172.671 84.6478C168.774 79.6762 166.825 71.7298 166.825 60.8086C166.825 39.1292 175.634 28.2894 193.253 28.2894C210.303 28.2894 218.828 37.6214 218.828 56.2853L217.975 65.821H180.222C180.303 70.8741 181.399 74.5824 183.51 76.9459C185.621 79.3095 189.559 80.4913 195.323 80.4913C201.088 80.4913 207.015 80.2468 213.104 79.7577ZM205.797 55.5518C205.797 49.5206 204.822 45.3233 202.874 42.9597C201.006 40.5147 197.799 39.2922 193.253 39.2922C188.706 39.2922 185.377 40.5554 183.266 43.082C181.236 45.6086 180.181 49.7651 180.1 55.5518H205.797Z" fill="black"/>
<path d="M225.503 90.7605V29.6342H238.656V36.9694C245.557 32.4868 252.459 29.5935 259.36 28.2894V41.615C252.377 43.0005 246.41 44.7935 241.457 46.9941L238.778 48.0944V90.7605H225.503Z" fill="black"/>
<path d="M263.419 90.7605V29.6342H276.572V36.9694C283.473 32.4868 290.374 29.5935 297.275 28.2894V41.615C290.293 43.0005 284.325 44.7935 279.373 46.9941L276.693 48.0944V90.7605H263.419Z" fill="black"/>
<path d="M346.395 48.4611V76.3347C346.476 78.1277 346.923 79.4725 347.735 80.369C348.628 81.184 349.968 81.7138 351.754 81.9583L351.388 92.1052C344.406 92.1052 339.007 90.5975 335.191 87.5819C328.696 90.5975 322.16 92.1052 315.583 92.1052C303.486 92.1052 297.437 85.6259 297.437 72.6671C297.437 66.473 299.061 61.9904 302.309 59.2193C305.637 56.4483 310.712 54.7775 317.532 54.207L333.242 52.8622V48.4611C333.242 45.201 332.512 42.919 331.05 41.615C329.67 40.3109 327.6 39.6589 324.839 39.6589C319.643 39.6589 313.148 39.9849 305.353 40.637L301.456 40.8815L300.969 31.468C309.819 29.349 317.938 28.2894 325.326 28.2894C332.796 28.2894 338.154 29.9195 341.402 33.1796C344.731 36.3581 346.395 41.452 346.395 48.4611ZM319.115 63.6204C313.513 64.1094 310.712 67.1657 310.712 72.7894C310.712 78.413 313.188 81.2248 318.141 81.2248C322.2 81.2248 326.503 80.5728 331.05 79.2687L333.242 78.5352V62.2756L319.115 63.6204Z" fill="black"/>
<path fill-rule="evenodd" clip-rule="evenodd" d="M78.0697 0C88.6673 0 97.5091 7.51715 99.554 17.5102C99.8461 18.9378 99.9995 20.4159 99.9995 21.9298V78.0702C99.9995 90.1817 90.1812 100 78.0697 100H21.9293C19.5316 100 17.2237 99.6152 15.0641 98.904C6.31512 96.0226 -0.000488281 87.7839 -0.000488281 78.0702V21.9298C-0.000488281 9.81832 9.81783 0 21.9293 0H78.0697ZM69.1751 7.01754H78.0697C85.3374 7.01754 91.3908 12.2166 92.7135 19.0984C88.4928 19.5766 83.6686 19.1335 78.5743 16.9502C74.0597 15.0154 71.0651 11.4307 69.1751 7.01754ZM48.3532 7.01754H61.682C63.8963 13.6838 68.1389 20.1128 75.81 23.4004C81.9634 26.0375 87.8074 26.6493 92.982 26.1354V33.3058C85.9562 35.5299 78.9553 36.43 73.3534 34.7904C70.571 33.9761 67.3784 31.8138 63.9427 28.4125C60.5539 25.0576 57.1725 20.7428 53.9794 16.0263C51.9951 13.0953 50.1055 10.0422 48.3532 7.01754ZM40.2936 7.01754H31.0076C31.4309 14.9585 29.5598 24.658 22.5996 34.4842C17.9884 40.9942 12.5354 44.575 7.01706 46.1741V60.1638C10.3422 58.1444 14.2567 55.3867 18.8397 51.6629C29.6686 42.8645 38.1977 39.3637 44.665 38.7234C51.0952 38.0868 55.6659 40.3172 57.6795 43.1362C59.7932 46.0955 60.9882 50.0613 61.4379 54.2441C61.8931 58.4774 61.6157 63.1989 60.548 67.8849C58.4254 77.2007 53.0372 86.8976 43.3299 92.1247C42.8013 92.4093 42.2679 92.6953 41.7303 92.9825H52.6379C56.9041 87.5669 60.3177 82.1861 61.542 77.9691C62.9239 73.2091 63.4912 68.1627 64.0217 63.4445L64.0218 63.4436L64.0219 63.4425C64.2124 61.748 64.3982 60.0954 64.6152 58.5141C64.9914 55.7735 65.5104 52.8699 66.6257 50.7763C67.2159 49.6683 68.1534 48.4348 69.6627 47.7227C71.2515 46.9731 72.9045 47.0651 74.3545 47.5485C78.4192 48.9033 83.8228 49.1841 92.982 46.8899V40.6302C85.919 42.6205 78.2175 43.526 71.3821 41.5254C66.9715 40.2345 62.7847 37.1409 59.0055 33.3995C55.1794 29.6116 51.5103 24.8969 48.1684 19.9605C45.3097 15.7381 42.6486 11.2912 40.2936 7.01754ZM92.982 54.1072C84.2563 56.1044 77.9818 56.0211 72.675 54.3793C72.2828 55.2974 71.9166 56.9258 71.5676 59.4683C71.3943 60.7312 71.2333 62.1672 71.0593 63.7198L71.0591 63.7209C70.5168 68.5597 69.8474 74.5309 68.2812 79.9256C67.0807 84.0608 64.4846 88.6033 61.3981 92.9825H68.4584C69.7605 89.7442 70.96 86.6599 71.9018 84.0675C72.9139 81.2818 73.548 79.2785 73.7519 78.2589C74.1392 76.3227 74.8769 74.2398 76.6072 72.7628C78.407 71.2264 80.6176 70.8967 82.6887 71.002C84.7281 71.1057 87.1193 71.655 89.817 72.4287C90.7979 72.7101 91.8521 73.0311 92.982 73.3875V54.1072ZM92.7538 80.6834C90.922 80.0886 89.3103 79.5839 87.8822 79.1743C85.2757 78.4267 83.5277 78.0713 82.3324 78.0105C81.5606 77.9713 81.2482 78.0663 81.1586 78.1064C81.1083 78.1657 80.8591 78.5055 80.6332 79.6352C80.3108 81.2472 79.4939 83.7213 78.4976 86.4637C77.7823 88.4326 76.9323 90.652 76.0126 92.9825H78.0697C85.414 92.9825 91.5182 87.6732 92.7538 80.6834ZM26.5888 92.9825C31.1844 90.6124 35.8229 88.1967 40.0029 85.9459C47.4008 81.9624 51.881 74.3348 53.7058 66.326C54.6118 62.3497 54.8278 58.409 54.4606 54.9943C54.088 51.5291 53.1448 48.8611 51.9691 47.2151C51.7897 46.964 50.0008 45.247 45.3564 45.7068C40.7491 46.163 33.4887 48.8025 23.265 57.1094C16.8651 62.3093 11.5093 65.8722 7.01706 68.2273V76.1416C8.12445 75.1281 9.37492 74.2817 10.5305 73.5595C11.7078 72.8238 12.9906 72.1 14.2513 71.393L14.5637 71.2179C15.7414 70.5578 16.9102 69.9027 18.0709 69.2075C20.61 67.6867 22.8931 66.0983 24.6486 64.2502C27.6881 61.0504 32.0751 57.2312 36.1996 54.6241C38.2344 53.338 40.4318 52.2004 42.5052 51.6781C44.4509 51.1879 47.4681 50.9884 49.5704 53.3917C51.5709 55.6787 52.4001 59.1089 50.9428 63.5609C49.5587 67.7891 46.0824 73.1285 39.3631 80.0717C32.3883 87.279 25.4133 90.8895 19.5327 92.04C18.8694 92.1697 18.217 92.2687 17.5777 92.3375C18.9544 92.7569 20.4155 92.9825 21.9293 92.9825H26.5888ZM7.01706 38.749C10.417 37.3388 13.8042 34.7606 16.8732 30.4279C22.933 21.8729 24.3973 13.5773 23.9803 7.01754H21.9293C13.6935 7.01754 7.01706 13.694 7.01706 21.9298V38.749ZM81.1517 78.1095C81.1353 78.1173 81.1285 78.1225 81.1293 78.1231C81.1298 78.1235 81.1335 78.1219 81.1399 78.1179L81.1442 78.115L81.1517 78.1095ZM39.9491 60.5561C36.4153 62.7897 32.4685 66.2072 29.7366 69.0832C27.3259 71.6211 24.4008 73.5962 21.6767 75.2278C20.4249 75.9776 19.1696 76.6811 18.006 77.3332L17.6837 77.5139C16.4087 78.2289 15.2654 78.8757 14.2496 79.5105C12.0593 80.8794 11.1436 81.7996 10.8567 82.3888C10.7744 82.5578 10.7646 82.6546 10.7899 82.8021C10.826 83.0121 10.9771 83.497 11.578 84.2982L11.6364 84.3761L11.6905 84.4572C11.6939 84.4618 11.7729 84.5708 12.024 84.7244C12.2834 84.883 12.6849 85.0627 13.2552 85.203C14.4012 85.4849 16.0695 85.5669 18.1853 85.153C22.3927 84.3299 28.1372 81.5808 34.3203 75.1916C40.7589 68.5383 43.3776 64.1144 44.2735 61.3777C44.8068 59.7484 44.6976 58.8659 44.5272 58.415C44.4416 58.4308 44.3397 58.4527 44.2195 58.483C43.2062 58.7383 41.7434 59.4219 39.9491 60.5561ZM44.9046 58.382C44.9031 58.3838 44.8822 58.3841 44.8466 58.3771C44.8884 58.3767 44.9062 58.3802 44.9046 58.382Z" fill="black"/>
</svg>
