<svg width="400" height="66" viewBox="0 0 400 66" fill="none" xmlns="http://www.w3.org/2000/svg">
<path fill-rule="evenodd" clip-rule="evenodd" d="M40.4974 1.62619C34.1071 1.62619 28.9268 6.80653 28.9268 13.1968C28.9268 19.5871 34.1071 24.7674 40.4974 24.7674C46.8877 24.7674 52.068 19.5871 52.068 13.1968C52.068 6.80653 46.8877 1.62619 40.4974 1.62619ZM17.874 24.136C29.9184 24.136 39.6823 33.8999 39.6823 45.9443V63.8183H28.8348V45.9443C28.8348 44.6616 28.6145 43.4304 28.2096 42.2864L12.2762 58.2198L4.6059 50.5495L19.9714 35.184C19.2926 35.0524 18.5913 34.9835 17.874 34.9835H0V24.136H17.874ZM63.3903 24.136C51.3459 24.136 41.5821 33.8999 41.5821 45.9443V63.8183H52.4295V45.9443C52.4295 44.9395 52.5647 43.9663 52.8179 43.0419L69.4854 59.7093L77.1557 52.039L60.4884 35.3717C61.4127 35.1186 62.3857 34.9835 63.3903 34.9835H81.2643V24.136H63.3903Z" fill="#0050FF"/>
<path d="M98.6201 64.4433V2.09349H116.278L135.211 55.5232H136.576V2.09349H146.68V64.4433H129.385L109.998 10.9226H108.724V64.4433H98.6201Z" fill="#0C284F"/>
<path d="M187.156 56.2514L189.704 55.9783L189.886 63.3511C182.969 64.7467 176.84 65.4446 171.5 65.4446C164.764 65.4446 159.91 63.5938 156.937 59.8922C154.024 56.1907 152.568 50.2743 152.568 42.143C152.568 26.0018 159.151 17.9313 172.319 17.9313C185.062 17.9313 191.434 24.8792 191.434 38.7752L190.797 45.8749H162.58C162.641 49.6371 163.46 52.3981 165.037 54.1579C166.615 55.9176 169.558 56.7975 173.867 56.7975C178.175 56.7975 182.605 56.6155 187.156 56.2514ZM181.694 38.2291C181.694 33.7387 180.966 30.6136 179.51 28.8539C178.114 27.0334 175.717 26.1232 172.319 26.1232C168.921 26.1232 166.433 27.0638 164.855 28.9449C163.338 30.826 162.55 33.9207 162.489 38.2291H181.694Z" fill="#0C284F"/>
<path d="M220.908 27.3975H208.347V47.4223C208.347 51.1238 208.62 53.5814 209.166 54.795C209.712 56.0087 211.108 56.6155 213.353 56.6155L220.817 56.3424L221.272 64.2613C217.206 65.0501 214.111 65.4446 211.988 65.4446C206.83 65.4446 203.28 64.2613 201.338 61.8947C199.457 59.5282 198.516 55.0681 198.516 48.5145V27.3975H192.691V18.9325H198.516V5.73436H208.347V18.9325H220.908V27.3975Z" fill="#0C284F"/>
<path d="M220.944 18.9325H230.683L237.874 55.9783H239.694L248.341 19.8427H258.536L267.183 55.9783H269.003L276.103 18.9325H285.933L276.285 64.4433H260.538L253.439 33.2229L246.339 64.4433H230.592L220.944 18.9325Z" fill="#0C284F"/>
<path d="M292.267 23.8477C295.422 19.9034 300.641 17.9313 307.922 17.9313C315.204 17.9313 320.392 19.9034 323.487 23.8477C326.642 27.7919 328.22 33.7083 328.22 41.5969C328.22 49.4854 326.703 55.4322 323.669 59.4371C320.635 63.4421 315.386 65.4446 307.922 65.4446C300.458 65.4446 295.21 63.4421 292.176 59.4371C289.141 55.4322 287.624 49.4854 287.624 41.5969C287.624 33.7083 289.172 27.7919 292.267 23.8477ZM299.73 53.4297C301.126 55.8569 303.857 57.0706 307.922 57.0706C311.988 57.0706 314.719 55.8569 316.114 53.4297C317.51 51.0025 318.208 47.0278 318.208 41.5059C318.208 35.9839 317.449 32.07 315.932 29.7641C314.476 27.4582 311.806 26.3053 307.922 26.3053C304.039 26.3053 301.338 27.4582 299.821 29.7641C298.365 32.07 297.637 35.9839 297.637 41.5059C297.637 47.0278 298.335 51.0025 299.73 53.4297Z" fill="#0C284F"/>
<path d="M333.524 64.4433V18.9325H343.355V24.3938C348.512 21.0563 353.67 18.9022 358.828 17.9313V27.8526C353.61 28.8842 349.15 30.2192 345.448 31.8576L343.446 32.6768V64.4433H333.524Z" fill="#0C284F"/>
<path d="M371.783 64.4433H361.862V0H371.783V37.2278L377.427 36.6817L388.167 18.9325H399.272L386.165 40.2316L400 64.4433H388.804L377.7 45.2378L371.783 45.8749V64.4433Z" fill="#0C284F"/>
</svg>
