<svg width="366" height="100" viewBox="0 0 366 100" fill="none" xmlns="http://www.w3.org/2000/svg">
<path d="M53.2885 39.8077H79.613L53.2885 7.62939e-06H26.9641L53.2885 39.8077Z" fill="#8E56EA"/>
<path d="M26.3284 39.8077H0.00397873L26.3284 7.62939e-06H52.6528L26.3284 39.8077Z" fill="#A574ED"/>
<path d="M53.2917 79.6161L53.2917 39.8084L79.6162 39.8084L79.6162 79.6161L53.2917 79.6161Z" fill="#C19AF4"/>
<path d="M4.80532e-07 79.6161L0 39.8084L26.3244 39.8084L26.3244 79.6161L4.80532e-07 79.6161Z" fill="#C19AF4"/>
<path d="M146.919 25.4963V79.6667H136.054V56.6171H112.849V79.6667H101.984V25.4963H112.849V47.7698H136.054V25.4963H146.919Z" fill="black"/>
<path d="M173.6 80.3652C169.461 80.3652 165.736 79.4598 162.425 77.6489C159.114 75.7863 156.501 73.1735 154.586 69.8105C152.724 66.4475 151.792 62.5671 151.792 58.1693C151.792 53.7715 152.75 49.8911 154.664 46.5281C156.63 43.165 159.295 40.5781 162.658 38.7673C166.021 36.9047 169.772 35.9734 173.911 35.9734C178.05 35.9734 181.801 36.9047 185.164 38.7673C188.527 40.5781 191.166 43.165 193.08 46.5281C195.046 49.8911 196.029 53.7715 196.029 58.1693C196.029 62.5671 195.02 66.4475 193.002 69.8105C191.036 73.1735 188.346 75.7863 184.931 77.6489C181.568 79.4598 177.791 80.3652 173.6 80.3652ZM173.6 70.897C175.566 70.897 177.403 70.4313 179.111 69.5C180.87 68.517 182.267 67.0683 183.301 65.154C184.336 63.2397 184.854 60.9114 184.854 58.1693C184.854 54.0819 183.767 50.9517 181.594 48.7787C179.473 46.5539 176.86 45.4415 173.756 45.4415C170.651 45.4415 168.038 46.5539 165.917 48.7787C163.848 50.9517 162.813 54.0819 162.813 58.1693C162.813 62.2566 163.822 65.4127 165.84 67.6375C167.909 69.8105 170.496 70.897 173.6 70.897Z" fill="black"/>
<path d="M254.289 36.051C259.566 36.051 263.809 37.6807 267.017 40.9403C270.276 44.1481 271.906 48.6493 271.906 54.4441V79.6667H261.041V55.9186C261.041 52.5556 260.187 49.9946 258.48 48.2354C256.773 46.4246 254.444 45.5192 251.495 45.5192C248.546 45.5192 246.192 46.4246 244.433 48.2354C242.725 49.9946 241.872 52.5556 241.872 55.9186V79.6667H231.007V55.9186C231.007 52.5556 230.153 49.9946 228.446 48.2354C226.738 46.4246 224.41 45.5192 221.461 45.5192C218.46 45.5192 216.08 46.4246 214.321 48.2354C212.614 49.9946 211.76 52.5556 211.76 55.9186V79.6667H200.895V36.6718H211.76V41.8716C213.157 40.0607 214.942 38.6379 217.115 37.6031C219.34 36.5684 221.771 36.051 224.41 36.051C227.773 36.051 230.774 36.7753 233.413 38.224C236.051 39.6209 238.095 41.6388 239.544 44.2774C240.941 41.794 242.958 39.802 245.597 38.3016C248.287 36.8012 251.185 36.051 254.289 36.051Z" fill="black"/>
<path d="M319.08 57.238C319.08 58.7901 318.977 60.1871 318.77 61.4288H287.339C287.597 64.5331 288.684 66.9649 290.598 68.724C292.512 70.4831 294.867 71.3626 297.66 71.3626C301.696 71.3626 304.568 69.6294 306.275 66.1629H317.994C316.752 70.302 314.372 73.7168 310.854 76.4072C307.336 79.0458 303.015 80.3652 297.893 80.3652C293.754 80.3652 290.029 79.4598 286.718 77.6489C283.458 75.7863 280.897 73.1735 279.035 69.8105C277.224 66.4475 276.318 62.5671 276.318 58.1693C276.318 53.7197 277.224 49.8135 279.035 46.4505C280.845 43.0874 283.381 40.5005 286.64 38.6896C289.9 36.8788 293.651 35.9734 297.893 35.9734C301.981 35.9734 305.628 36.8529 308.836 38.612C312.096 40.3712 314.605 42.8805 316.364 46.14C318.175 49.3478 319.08 53.0471 319.08 57.238ZM307.827 54.1337C307.775 51.3398 306.766 49.115 304.8 47.4594C302.834 45.752 300.429 44.8983 297.583 44.8983C294.892 44.8983 292.616 45.7261 290.753 47.3818C288.943 48.9857 287.83 51.2363 287.416 54.1337H307.827Z" fill="black"/>
<path d="M365.039 36.6718L338.419 100H326.856L336.169 78.5802L318.94 36.6718H331.124L342.222 66.7062L353.475 36.6718H365.039Z" fill="black"/>
</svg>
