<svg width="21" height="20" viewBox="0 0 21 20" fill="none" xmlns="http://www.w3.org/2000/svg">
<path fill-rule="evenodd" clip-rule="evenodd" d="M11.1013 5.77422C7.93954 5.77422 5.37639 7.60217 5.37639 9.85706V10.1428H0V9.85706C0 5.48455 4.97024 1.93994 11.1013 1.93994V5.77422Z" fill="url(#paint0_linear_35_191)"/>
<path fill-rule="evenodd" clip-rule="evenodd" d="M15.6236 10.1426V9.85693H21V10.1426C21 14.5152 16.0298 18.0598 9.89868 18.0598V14.2255C13.0605 14.2255 15.6236 12.3975 15.6236 10.1426Z" fill="url(#paint1_linear_35_191)"/>
<path fill-rule="evenodd" clip-rule="evenodd" d="M10.9003 0V7.57141L20.1147 3.85713L10.9003 0ZM10.0982 20L10.0982 12.4286L0.883789 16.1429L10.0982 20Z" fill="#4951FF"/>
<defs>
<linearGradient id="paint0_linear_35_191" x1="10.6269" y1="4.06009" x2="1.52473" y2="4.41461" gradientUnits="userSpaceOnUse">
<stop stop-color="#3A41CE"/>
<stop offset="1" stop-color="#4951FF"/>
</linearGradient>
<linearGradient id="paint1_linear_35_191" x1="10.3731" y1="15.9396" x2="19.4753" y2="15.5851" gradientUnits="userSpaceOnUse">
<stop stop-color="#3A41CE"/>
<stop offset="1" stop-color="#4951FF"/>
</linearGradient>
</defs>
</svg>
