<svg width="1637" height="759" viewBox="0 0 1637 759" fill="none" xmlns="http://www.w3.org/2000/svg">
<path d="M1314.47 331.512H1340.89C1349.67 331.512 1355.71 322.697 1352.55 314.507L1286.19 142.761C1284.33 137.943 1279.7 134.766 1274.53 134.766H1234.73C1229.57 134.766 1224.94 137.936 1223.07 142.746L1156.47 314.493C1153.29 322.685 1159.34 331.512 1168.12 331.512H1194.8C1200.06 331.512 1204.76 328.214 1206.55 323.264L1216.05 297.016C1217.12 294.046 1219.94 292.067 1223.1 292.067H1286.17C1289.33 292.067 1292.15 294.046 1293.22 297.016L1302.72 323.264C1304.51 328.214 1309.21 331.512 1314.47 331.512ZM1238.64 234.562L1247.5 210.025C1249.88 203.435 1259.19 203.417 1261.6 209.998L1270.56 234.535C1272.35 239.428 1268.73 244.609 1263.52 244.609H1245.69C1240.49 244.609 1236.87 239.45 1238.64 234.562ZM1417.71 134.766H1391.88C1384.98 134.766 1379.38 140.363 1379.38 147.266V319.012C1379.38 325.916 1384.98 331.512 1391.88 331.512H1417.71C1424.61 331.512 1430.21 325.916 1430.21 319.012V147.266C1430.21 140.363 1424.61 134.766 1417.71 134.766Z" fill="#EC8382" stroke="white" stroke-width="5"/>
<path d="M245.275 269.947C257.034 269.947 266.943 265.191 273.152 256.868L257.166 243.92C254.656 248.148 250.692 250.262 245.804 250.262C237.084 250.262 231.535 244.052 231.535 234.672C231.535 225.292 237.216 218.818 245.672 218.818C250.296 218.818 253.995 220.8 256.373 224.103L272.227 211.287C265.886 203.757 256.505 199.397 245.275 199.397C224.929 199.397 210 213.93 210 234.672C210 255.415 224.797 269.947 245.275 269.947Z" fill="white"/>
<path d="M325.31 199.397C317.251 199.397 310.38 202.435 305.756 207.324V169.142H284.75V268.23H305.756V229.52C305.756 222.517 312.494 218.818 318.836 218.818C325.706 218.818 329.934 222.782 329.934 229.784V268.23H350.94V224.631C350.94 209.173 339.975 199.397 325.31 199.397Z" fill="white"/>
<path d="M384.176 241.939H429.757C430.285 239.693 430.814 234.144 430.814 231.633C430.814 215.383 420.244 199.397 397.652 199.397C376.381 199.397 362.245 214.326 362.245 234.54C362.245 255.943 377.967 269.947 398.973 269.947C410.071 269.947 419.848 265.984 426.85 259.114L412.846 246.695C409.146 250.13 403.994 252.112 398.313 252.112C390.914 252.112 386.026 248.677 384.176 241.939ZM397.388 217.497C404.919 217.497 409.939 221.46 410.732 228.33H384.044C385.762 221.592 390.386 217.497 397.388 217.497Z" fill="white"/>
<path d="M462.879 241.939H508.46C508.988 239.693 509.517 234.144 509.517 231.633C509.517 215.383 498.947 199.397 476.355 199.397C455.084 199.397 440.948 214.326 440.948 234.54C440.948 255.943 456.67 269.947 477.676 269.947C488.774 269.947 498.551 265.984 505.553 259.114L491.549 246.695C487.849 250.13 482.697 252.112 477.016 252.112C469.617 252.112 464.729 248.677 462.879 241.939ZM476.091 217.497C483.622 217.497 488.642 221.46 489.435 228.33H462.747C464.464 221.592 469.089 217.497 476.091 217.497Z" fill="white"/>
<path d="M554.926 269.947C566.684 269.947 576.593 265.191 582.803 256.868L566.816 243.92C564.306 248.148 560.343 250.262 555.454 250.262C546.734 250.262 541.186 244.052 541.186 234.672C541.186 225.292 546.867 218.818 555.322 218.818C559.946 218.818 563.645 220.8 566.024 224.103L581.878 211.287C575.536 203.757 566.156 199.397 554.926 199.397C534.58 199.397 519.65 213.93 519.65 234.672C519.65 255.415 534.448 269.947 554.926 269.947Z" fill="white"/>
<path d="M639.452 268.23H663.497L635.885 230.444L662.44 202.171H636.81L615.407 226.481V169.142H594.4V268.23H615.407V252.376L623.202 244.052L639.452 268.23Z" fill="white"/>
<path d="M711.045 269.947C733.505 269.947 749.491 258.85 749.491 239.957C749.491 218.554 727.031 213.93 713.291 211.155C701.136 208.777 697.041 207.06 697.041 202.7C697.041 197.679 701.401 194.244 710.913 194.244C718.972 194.244 728.617 196.754 736.808 201.907L747.245 183.675C737.072 177.465 725.71 174.03 712.631 174.03C694.795 174.03 672.863 180.24 672.863 205.342C672.863 221.989 682.64 226.349 710.12 232.822C720.029 235.068 725.05 235.993 725.05 241.41C725.05 246.959 719.897 249.866 711.838 249.866C701.929 249.866 688.057 245.374 680.394 239.428L670.089 257.396C676.563 262.285 693.342 269.947 711.045 269.947Z" fill="white"/>
<path d="M802.546 199.397C793.958 199.397 786.956 203.228 782.596 209.438L781.803 201.114H762.514V301.259H783.521V262.153C787.881 267.041 794.355 269.947 802.017 269.947C819.457 269.947 833.329 255.282 833.329 234.804C833.329 214.326 819.457 199.397 802.546 199.397ZM797.129 250.526C788.409 250.526 782.2 243.92 782.2 234.672C782.2 225.292 788.541 218.95 797.129 218.95C805.849 218.95 811.794 225.688 811.794 234.804C811.794 243.788 805.849 250.526 797.129 250.526Z" fill="white"/>
<path d="M865.425 241.939H911.005C911.534 239.693 912.062 234.144 912.062 231.633C912.062 215.383 901.493 199.397 878.901 199.397C857.63 199.397 843.493 214.326 843.493 234.54C843.493 255.943 859.215 269.947 880.222 269.947C891.32 269.947 901.096 265.984 908.099 259.114L894.094 246.695C890.395 250.13 885.242 252.112 879.561 252.112C872.163 252.112 867.274 248.677 865.425 241.939ZM878.636 217.497C886.167 217.497 891.187 221.46 891.98 228.33H865.292C867.01 221.592 871.634 217.497 878.636 217.497Z" fill="white"/>
<path d="M944.127 241.939H989.708C990.236 239.693 990.765 234.144 990.765 231.633C990.765 215.383 980.195 199.397 957.603 199.397C936.332 199.397 922.196 214.326 922.196 234.54C922.196 255.943 937.918 269.947 958.925 269.947C970.022 269.947 979.799 265.984 986.801 259.114L972.797 246.695C969.098 250.13 963.945 252.112 958.264 252.112C950.865 252.112 945.977 248.677 944.127 241.939ZM957.339 217.497C964.87 217.497 969.89 221.46 970.683 228.33H943.995C945.713 221.592 950.337 217.497 957.339 217.497Z" fill="white"/>
<path d="M1036.17 269.947C1047.93 269.947 1057.84 265.191 1064.05 256.868L1048.06 243.92C1045.55 248.148 1041.59 250.262 1036.7 250.262C1027.98 250.262 1022.43 244.052 1022.43 234.672C1022.43 225.292 1028.11 218.818 1036.57 218.818C1041.19 218.818 1044.89 220.8 1047.27 224.103L1063.13 211.287C1056.78 203.757 1047.4 199.397 1036.17 199.397C1015.83 199.397 1000.9 213.93 1000.9 234.672C1000.9 255.415 1015.7 269.947 1036.17 269.947Z" fill="white"/>
<path d="M1116.21 199.397C1108.15 199.397 1101.28 202.435 1096.65 207.324V169.142H1075.65V268.23H1096.65V229.52C1096.65 222.517 1103.39 218.818 1109.73 218.818C1116.6 218.818 1120.83 222.782 1120.83 229.784V268.23H1141.84V224.631C1141.84 209.173 1130.87 199.397 1116.21 199.397Z" fill="white"/>
<path d="M575.503 475.369C575.503 526.528 534.031 568 482.872 568C431.714 568 390.241 526.528 390.241 475.369C390.241 424.21 431.714 382.738 482.872 382.738C534.031 382.738 575.503 424.21 575.503 475.369Z" fill="url(#paint0_linear_86_68)"/>
<path d="M482.872 423.467L562.167 475.549L482.872 527.632L403.577 475.549L482.872 423.467Z" fill="#FFDF00"/>
<circle cx="482.872" cy="475.369" r="26.3115" fill="#002776"/>
<g filter="url(#filter0_d_86_68)">
<rect x="687.587" y="405.896" width="253.809" height="138.58" fill="#B31942"/>
</g>
<rect x="687.587" y="405.896" width="137.194" height="71.1133" fill="#0A3161"/>
<rect x="824.018" y="428.993" width="115.853" height="7.29367" fill="white"/>
<rect x="824.018" y="445.403" width="115.853" height="7.29367" fill="white"/>
<rect x="824.018" y="461.814" width="115.853" height="7.29367" fill="white"/>
<rect x="687.587" y="478.225" width="250.76" height="7.29367" fill="white"/>
<rect x="687.587" y="494.635" width="250.76" height="7.29367" fill="white"/>
<rect x="687.587" y="511.046" width="250.76" height="7.29367" fill="white"/>
<rect x="687.587" y="527.457" width="250.76" height="7.29367" fill="white"/>
<rect x="824.018" y="412.582" width="115.853" height="7.29367" fill="white"/>
<path d="M697.876 410.15L699.673 414.56H705.488L700.784 417.286L702.58 421.695L697.876 418.97L693.172 421.695L694.969 417.286L690.265 414.56H696.079L697.876 410.15Z" fill="white"/>
<path d="M697.876 424.13L699.673 428.54H705.488L700.784 431.265L702.58 435.675L697.876 432.95L693.172 435.675L694.969 431.265L690.265 428.54H696.079L697.876 424.13Z" fill="white"/>
<path d="M699.401 440.541L701.198 444.951H707.012L702.308 447.676L704.105 452.086L699.401 449.36L694.697 452.086L696.494 447.676L691.79 444.951H697.604L699.401 440.541Z" fill="white"/>
<path d="M697.876 459.383L699.673 463.793H705.488L700.784 466.518L702.58 470.928L697.876 468.202L693.172 470.928L694.969 466.518L690.265 463.793H696.079L697.876 459.383Z" fill="white"/>
<path d="M719.98 410.15L721.777 414.56H727.591L722.887 417.286L724.684 421.695L719.98 418.97L715.276 421.695L717.073 417.286L712.369 414.56H718.183L719.98 410.15Z" fill="white"/>
<path d="M719.98 424.13L721.777 428.54H727.591L722.887 431.265L724.684 435.675L719.98 432.95L715.276 435.675L717.073 431.265L712.369 428.54H718.183L719.98 424.13Z" fill="white"/>
<path d="M721.504 440.541L723.301 444.951H729.115L724.411 447.676L726.208 452.086L721.504 449.36L716.8 452.086L718.597 447.676L713.893 444.951H719.707L721.504 440.541Z" fill="white"/>
<path d="M719.98 459.383L721.777 463.793H727.591L722.887 466.518L724.684 470.928L719.98 468.202L715.276 470.928L717.073 466.518L712.369 463.793H718.183L719.98 459.383Z" fill="white"/>
<path d="M742.083 410.15L743.88 414.56H749.695L744.991 417.286L746.787 421.695L742.083 418.97L737.379 421.695L739.176 417.286L734.472 414.56H740.287L742.083 410.15Z" fill="white"/>
<path d="M742.083 424.13L743.88 428.54H749.695L744.991 431.265L746.787 435.675L742.083 432.95L737.379 435.675L739.176 431.265L734.472 428.54H740.287L742.083 424.13Z" fill="white"/>
<path d="M743.608 440.541L745.404 444.951H751.219L746.515 447.676L748.312 452.086L743.608 449.36L738.904 452.086L740.7 447.676L735.996 444.951H741.811L743.608 440.541Z" fill="white"/>
<path d="M742.083 459.383L743.88 463.793H749.695L744.991 466.518L746.787 470.928L742.083 468.202L737.379 470.928L739.176 466.518L734.472 463.793H740.287L742.083 459.383Z" fill="white"/>
<path d="M764.187 410.15L765.984 414.56H771.798L767.094 417.286L768.891 421.695L764.187 418.97L759.483 421.695L761.28 417.286L756.576 414.56H762.39L764.187 410.15Z" fill="white"/>
<path d="M764.187 424.13L765.984 428.54H771.798L767.094 431.265L768.891 435.675L764.187 432.95L759.483 435.675L761.28 431.265L756.576 428.54H762.39L764.187 424.13Z" fill="white"/>
<path d="M765.711 440.541L767.508 444.951H773.322L768.618 447.676L770.415 452.086L765.711 449.36L761.007 452.086L762.804 447.676L758.1 444.951H763.914L765.711 440.541Z" fill="white"/>
<path d="M764.187 459.383L765.984 463.793H771.798L767.094 466.518L768.891 470.928L764.187 468.202L759.483 470.928L761.28 466.518L756.576 463.793H762.39L764.187 459.383Z" fill="white"/>
<path d="M786.29 410.15L788.087 414.56H793.901L789.197 417.286L790.994 421.695L786.29 418.97L781.586 421.695L783.383 417.286L778.679 414.56H784.493L786.29 410.15Z" fill="white"/>
<path d="M786.29 424.13L788.087 428.54H793.901L789.197 431.265L790.994 435.675L786.29 432.95L781.586 435.675L783.383 431.265L778.679 428.54H784.493L786.29 424.13Z" fill="white"/>
<path d="M787.815 440.541L789.611 444.951H795.426L790.722 447.676L792.519 452.086L787.815 449.36L783.11 452.086L784.907 447.676L780.203 444.951H786.018L787.815 440.541Z" fill="white"/>
<path d="M786.29 459.383L788.087 463.793H793.901L789.197 466.518L790.994 470.928L786.29 468.202L781.586 470.928L783.383 466.518L778.679 463.793H784.493L786.29 459.383Z" fill="white"/>
<path d="M808.394 410.15L810.19 414.56H816.005L811.301 417.286L813.098 421.695L808.394 418.97L803.69 421.695L805.486 417.286L800.782 414.56H806.597L808.394 410.15Z" fill="white"/>
<path d="M808.394 424.13L810.19 428.54H816.005L811.301 431.265L813.098 435.675L808.394 432.95L803.69 435.675L805.486 431.265L800.782 428.54H806.597L808.394 424.13Z" fill="white"/>
<path d="M809.918 440.541L811.715 444.951H817.529L812.825 447.676L814.622 452.086L809.918 449.36L805.214 452.086L807.011 447.676L802.307 444.951H808.121L809.918 440.541Z" fill="white"/>
<path d="M808.394 459.383L810.19 463.793H816.005L811.301 466.518L813.098 470.928L808.394 468.202L803.69 470.928L805.486 466.518L800.782 463.793H806.597L808.394 459.383Z" fill="white"/>
<g filter="url(#filter1_d_86_68)">
<path d="M1153.64 405.999L1179.42 363.285L1204.19 405.999V548.295H1153.64V405.999Z" fill="white"/>
<path d="M1282.79 548.548L1203.68 405.494V548.548H1282.79Z" fill="#EF4135"/>
<path d="M1074.78 548.296L1153.89 405.241L1153.89 548.295L1074.78 548.296Z" fill="#0055A4"/>
</g>
<path d="M271 37H1445C1547.72 37 1631 120.275 1631 223V536C1631 638.725 1547.72 722 1445 722H271" stroke="#EC8382" stroke-width="12" stroke-linecap="round"/>
<path d="M1337 74H263C160.275 74 77 157.275 77 260V492C77 594.725 160.275 678 263 678H1337" stroke="#EC8382" stroke-width="12" stroke-linecap="round"/>
<path d="M1366 6H192C89.275 6 6 89.275 6 192V567C6 669.725 89.275 753 192 753H1366" stroke="#0050FF" stroke-width="12" stroke-linecap="round"/>
<path d="M791 74H1378C1480.72 74 1564 157.275 1564 260V492C1564 594.725 1480.72 678 1378 678H791" stroke="#0050FF" stroke-width="12" stroke-linecap="round"/>
<defs>
<filter id="filter0_d_86_68" x="683.587" y="397.896" width="285.809" height="170.58" filterUnits="userSpaceOnUse" color-interpolation-filters="sRGB">
<feFlood flood-opacity="0" result="BackgroundImageFix"/>
<feColorMatrix in="SourceAlpha" type="matrix" values="0 0 0 0 0 0 0 0 0 0 0 0 0 0 0 0 0 0 127 0" result="hardAlpha"/>
<feOffset dx="12" dy="8"/>
<feGaussianBlur stdDeviation="8"/>
<feComposite in2="hardAlpha" operator="out"/>
<feColorMatrix type="matrix" values="0 0 0 0 0.701961 0 0 0 0 0.0980392 0 0 0 0 0.258824 0 0 0 1 0"/>
<feBlend mode="normal" in2="BackgroundImageFix" result="effect1_dropShadow_86_68"/>
<feBlend mode="normal" in="SourceGraphic" in2="effect1_dropShadow_86_68" result="shape"/>
</filter>
<filter id="filter1_d_86_68" x="1066.78" y="363.285" width="224.009" height="209.262" filterUnits="userSpaceOnUse" color-interpolation-filters="sRGB">
<feFlood flood-opacity="0" result="BackgroundImageFix"/>
<feColorMatrix in="SourceAlpha" type="matrix" values="0 0 0 0 0 0 0 0 0 0 0 0 0 0 0 0 0 0 127 0" result="hardAlpha"/>
<feOffset dy="16"/>
<feGaussianBlur stdDeviation="4"/>
<feComposite in2="hardAlpha" operator="out"/>
<feColorMatrix type="matrix" values="0 0 0 0 0 0 0 0 0 0.333333 0 0 0 0 0.643137 0 0 0 0.5 0"/>
<feBlend mode="normal" in2="BackgroundImageFix" result="effect1_dropShadow_86_68"/>
<feBlend mode="normal" in="SourceGraphic" in2="effect1_dropShadow_86_68" result="shape"/>
</filter>
<linearGradient id="paint0_linear_86_68" x1="482.872" y1="382.738" x2="482.872" y2="568" gradientUnits="userSpaceOnUse">
<stop stop-color="#009C3B"/>
<stop offset="1" stop-color="#06D253"/>
</linearGradient>
</defs>
</svg>
